<?xml version="1.0" encoding="UTF-8"?>
<svg version="1.1" xmlns="http://www.w3.org/2000/svg" width="400" height="157">
<path d="M0 0 C7.50417401 5.02159013 11.31802902 11.37306838 13.4609375 20.07421875 C15.27309201 29.90975301 13.92867778 39.35958354 9.3125 48.25 C3.24637598 55.46376911 -3.44490931 61.20701046 -13.12597656 62.22314453 C-24.97579086 63.00837319 -35.69266957 62.44547278 -45.375 54.875 C-52.83071276 47.75609562 -54.93335015 39.20547139 -55.25 29.25 C-55.13210225 19.71207169 -52.53173808 11.14665066 -46 4 C-33.45345012 -5.66871088 -14.08998959 -7.8709597 0 0 Z M-31 16 C-34.93348926 22.16246651 -34.67087877 28.86846673 -34 36 C-32.41600855 40.75197436 -30.27462849 43.37693252 -26 46 C-21.79168428 47.16897659 -19.50528805 47.15415568 -15.3125 45.875 C-11.46179906 43.69535796 -8.81865404 41.51053905 -7.4140625 37.203125 C-6.03656803 29.87381482 -6.10324519 22.44980107 -10 16 C-12.27432309 13.31216362 -13.84506598 12.1873388 -17.3359375 11.62109375 C-22.99170407 11.35783735 -26.75256153 11.95975365 -31 16 Z " fill="#459EB5" transform="translate(135,53)"/>
<path d="M0 0 C1.24523437 0.00580078 1.24523437 0.00580078 2.515625 0.01171875 C4.75 0.3125 4.75 0.3125 7.75 2.3125 C8.45052461 4.975563 8.52744818 7.55285737 8.75 10.3125 C9.45125 9.549375 10.1525 8.78625 10.875 8 C16.44302581 2.79510631 22.07886068 0.97164292 29.59765625 1.09765625 C34.72258094 1.60921861 38.60563795 3.37158009 42.5625 6.625 C46.99296788 12.06814626 48.88175592 17.24525147 48.86352539 24.17285156 C48.86344986 25.13354553 48.86337433 26.0942395 48.86329651 27.08404541 C48.85813522 28.11334167 48.85297394 29.14263794 48.84765625 30.203125 C48.8462413 31.26287537 48.84482635 32.32262573 48.84336853 33.41448975 C48.83777382 36.79718862 48.82522225 40.17982115 48.8125 43.5625 C48.80748432 45.85676988 48.80292153 48.15104079 48.79882812 50.4453125 C48.78780611 56.06773094 48.77107321 61.69011073 48.75 67.3125 C45.24904689 68.47948437 42.4377768 68.44518287 38.75 68.4375 C37.5125 68.44007812 36.275 68.44265625 35 68.4453125 C31.75 68.3125 31.75 68.3125 28.75 67.3125 C28.73541748 66.13743896 28.72083496 64.96237793 28.70581055 63.75170898 C28.64760489 59.36989728 28.57037392 54.98858752 28.48754883 50.60717773 C28.45440393 48.71500833 28.42633983 46.82274254 28.40356445 44.93041992 C28.36982579 42.20189546 28.31750135 39.474246 28.26171875 36.74609375 C28.25532883 35.90727158 28.2489389 35.0684494 28.24235535 34.20420837 C28.11037693 28.86816416 27.32057654 25.02566592 24.75 20.3125 C21.23746854 17.97081236 19.88530644 17.81626323 15.75 18.3125 C12.2464701 20.54201902 10.32681861 22.50543501 8.75 26.3125 C8.4286595 28.36743662 8.4286595 28.36743662 8.43115234 30.53027344 C8.41128265 31.35082214 8.39141296 32.17137085 8.37094116 33.01678467 C8.35361435 34.33105438 8.35361435 34.33105438 8.3359375 35.671875 C8.31657135 36.57625305 8.2972052 37.4806311 8.2772522 38.41241455 C8.21756169 41.29568099 8.17111314 44.17898758 8.125 47.0625 C8.08681053 49.01954848 8.04775823 50.97658033 8.0078125 52.93359375 C7.91186875 57.72642711 7.82779873 62.51933915 7.75 67.3125 C4.33189641 68.23579139 1.30102534 68.44637756 -2.25 68.4375 C-3.28125 68.44007812 -4.3125 68.44265625 -5.375 68.4453125 C-8.25 68.3125 -8.25 68.3125 -12.25 67.3125 C-12.25 46.1925 -12.25 25.0725 -12.25 3.3125 C-4.31503252 -0.08820035 -4.31503252 -0.08820035 0 0 Z " fill="#459EB5" transform="translate(329.25,48.6875)"/>
<path d="M0 0 C0.01458252 1.21059082 0.02916504 2.42118164 0.04418945 3.66845703 C0.10231685 8.17509981 0.1795489 12.68125049 0.26245117 17.1875 C0.29563265 19.13500968 0.32368557 21.08261397 0.34643555 23.03027344 C0.38010634 25.83569515 0.43242827 28.64025528 0.48828125 31.4453125 C0.49467117 32.31116974 0.5010611 33.17702698 0.50764465 34.06912231 C0.62825348 39.06793037 1.12419516 42.72371961 4 47 C7.653135 48.62361556 9.84393228 49.28901693 13.75 48.3125 C17.2672314 46.26078168 18.70008725 44.89973826 20 41 C20.11265547 39.63484686 20.17582586 38.26522788 20.20532227 36.89575195 C20.22526749 36.07512772 20.24521271 35.25450348 20.26576233 34.40901184 C20.28247482 33.52767075 20.29918732 32.64632965 20.31640625 31.73828125 C20.33718735 30.83248825 20.35796844 29.92669525 20.37937927 28.99345398 C20.44476558 26.09987984 20.50370904 23.20621493 20.5625 20.3125 C20.6056956 18.35090207 20.64931023 16.38931332 20.69335938 14.42773438 C20.80043582 9.61858261 20.90173414 4.80933954 21 0 C24.51720023 -1.4757586 27.16901896 -2.27394363 31 -2.25 C32.2375 -2.25773437 32.2375 -2.25773437 33.5 -2.265625 C36 -2 36 -2 41 0 C41 21.12 41 42.24 41 64 C37.13309652 65.93345174 35.69473819 66.27292504 31.5625 66.25 C30.63566406 66.25515625 29.70882812 66.2603125 28.75390625 66.265625 C25.83945824 65.98451512 23.65109503 65.21247903 21 64 C20.505 60.535 20.505 60.535 20 57 C19.45730469 57.49371094 18.91460937 57.98742187 18.35546875 58.49609375 C17.64003906 59.13675781 16.92460937 59.77742188 16.1875 60.4375 C15.47980469 61.07558594 14.77210938 61.71367188 14.04296875 62.37109375 C8.80358423 66.54857624 1.33185639 65.50486563 -5 65 C-10.35146109 63.49668879 -14.11714242 60.80476263 -17 56 C-19.94872451 49.26759794 -20.40775406 43.11678425 -20.29296875 35.83984375 C-20.28872391 34.80936417 -20.28447906 33.77888458 -20.28010559 32.71717834 C-20.26344216 29.45700885 -20.22581301 26.19747961 -20.1875 22.9375 C-20.17243722 20.7142017 -20.15875162 18.49089361 -20.14648438 16.26757812 C-20.11357924 10.84483719 -20.06350457 5.42246436 -20 0 C-12.57719065 -2.62348942 -7.50598094 -2.25447818 0 0 Z " fill="#459EB5" transform="translate(172,50)"/>
<path d="M0 0 C0.81082031 -0.01417969 1.62164062 -0.02835938 2.45703125 -0.04296875 C6.25666893 0.27774459 8.67458939 0.52937534 12.1875 2.1875 C14.7243789 5.63303084 16.48916825 9.39037518 18.3125 13.25 C19.31413322 15.28303074 20.31672557 17.31558923 21.3203125 19.34765625 C21.79629883 20.32879395 22.27228516 21.30993164 22.76269531 22.32080078 C24.76760455 26.35466717 26.94916712 30.27934861 29.1875 34.1875 C29.80625 34.0225 30.425 33.8575 31.0625 33.6875 C33.1875 33.1875 33.1875 33.1875 35.1875 33.1875 C35.65647705 32.28918457 36.1254541 31.39086914 36.60864258 30.46533203 C38.35098039 27.13282465 40.1032834 23.80564475 41.85864258 20.47998047 C42.61690665 19.0400086 43.37246232 17.59860714 44.12524414 16.15576172 C45.20790689 14.08178812 46.30021334 12.01315485 47.39453125 9.9453125 C47.72902786 9.29942169 48.06352448 8.65353088 48.40815735 7.98806763 C50.10002019 4.81437768 51.1323349 3.22427673 54.1875 1.1875 C57.07962821 1.01838646 59.86194625 0.95446222 62.75 1 C63.92079102 1.0009668 63.92079102 1.0009668 65.11523438 1.00195312 C70.90634586 1.04692293 70.90634586 1.04692293 73.1875 2.1875 C71.60269236 8.08221136 68.57165099 12.89080544 65.4375 18.0625 C64.26874732 20.0138536 63.10080917 21.96569524 61.93359375 23.91796875 C61.32370605 24.93552246 60.71381836 25.95307617 60.08544922 27.00146484 C56.23120435 33.47147971 52.46377448 39.99247496 48.68261719 46.50537109 C48.12348633 47.46652832 47.56435547 48.42768555 46.98828125 49.41796875 C46.49497314 50.26770264 46.00166504 51.11743652 45.4934082 51.99291992 C44.44384799 53.75670693 43.3259904 55.4797644 42.1875 57.1875 C41.9591777 59.78422923 41.83875924 62.28330934 41.80859375 64.8828125 C41.78310204 66.00488602 41.78310204 66.00488602 41.75709534 67.14962769 C41.70399081 69.53716626 41.66366806 71.92468736 41.625 74.3125 C41.5811125 76.70736675 41.53447059 79.102097 41.48219299 81.49679565 C41.45016482 82.98686478 41.423297 84.47705508 41.40196228 85.96731567 C41.29925387 91.07574613 41.29925387 91.07574613 40.1875 92.1875 C37.34414952 92.28736975 34.53052837 92.32627881 31.6875 92.3125 C30.49060547 92.31830078 30.49060547 92.31830078 29.26953125 92.32421875 C23.31410767 92.31410767 23.31410767 92.31410767 22.1875 91.1875 C22.21309671 88.97949737 22.29496218 86.77213145 22.3984375 84.56640625 C23.01600964 64.41151643 20.15001875 51.39816863 8.40576172 34.45703125 C4.79495223 29.13500168 1.53818889 23.60891803 -1.72921753 18.07174683 C-2.79447823 16.28030706 -3.87995016 14.50266325 -4.97094727 12.72680664 C-5.61990967 11.65293701 -6.26887207 10.57906738 -6.9375 9.47265625 C-7.51757812 8.52269775 -8.09765625 7.57273926 -8.6953125 6.59399414 C-9.8125 4.1875 -9.8125 4.1875 -8.8125 1.1875 C-5.92712429 0.08069291 -3.06746583 0.02415327 0 0 Z M26.1875 38.1875 C27.1875 41.1875 27.1875 41.1875 27.1875 41.1875 Z M36.1875 38.1875 C37.1875 41.1875 37.1875 41.1875 37.1875 41.1875 Z " fill="#459EB5" transform="translate(27.8125,23.8125)"/>
<path d="M0 0 C2.875 2.4375 2.875 2.4375 5 5 C5.556875 5.61875 6.11375 6.2375 6.6875 6.875 C10.51069503 13.06493481 10.27018039 19.71037419 10.1953125 26.74609375 C10.1924826 27.75720718 10.18965271 28.76832062 10.18673706 29.81007385 C10.17559889 33.01933952 10.15050597 36.22831958 10.125 39.4375 C10.11496198 41.62174074 10.10583757 43.80598589 10.09765625 45.99023438 C10.07568043 51.32691932 10.04226656 56.66343924 10 62 C6.63612581 63.80373872 4.34352105 64.27111825 0.5 64.25 C-0.4384375 64.25515625 -1.376875 64.2603125 -2.34375 64.265625 C-5.09363829 63.99063617 -6.73276766 63.5704224 -9 62 C-9.75 58.875 -9.75 58.875 -10 56 C-10.9075 56.78375 -11.815 57.5675 -12.75 58.375 C-18.52052778 63.35863763 -23.79931654 63.59428861 -31.28515625 63.375 C-38.01274485 62.69587434 -41.18201104 60.09068731 -45.5 55.125 C-48.31625981 49.42961743 -47.89849329 42.12428883 -47 36 C-43.3184225 29.51304508 -39.30867997 25.47043332 -32.1875 23.3125 C-24.58553719 21.45938995 -16.7715056 20.77441732 -9 20 C-11.11326526 15.29157376 -11.11326526 15.29157376 -15 12 C-24.51736593 10.65534463 -32.62963887 13.81481944 -41 18 C-41 12.72 -41 7.44 -41 2 C-29.65267843 -3.67366078 -11.78397873 -6.71846751 0 0 Z M-16.25 32.75 C-17.38953125 32.88921875 -18.5290625 33.0284375 -19.703125 33.171875 C-23.40620946 34.10203366 -25.27421494 35.36358494 -28 38 C-29.24401278 40.38608611 -29.24401278 40.38608611 -29 43 C-27.08551641 46.36949111 -25.80257721 47.72084271 -22.125 49 C-18.17797796 49 -16.27071675 48.20417868 -13 46 C-9.96964852 42.57091806 -8.76595949 40.13355702 -8.75 35.625 C-8.8325 34.42875 -8.915 33.2325 -9 32 C-11.4221434 32 -13.8552621 32.43857669 -16.25 32.75 Z " fill="#459EB5" transform="translate(303,52)"/>
<path d="M0 0 C0.88945312 -0.00257812 1.77890625 -0.00515625 2.6953125 -0.0078125 C4.875 0.125 4.875 0.125 5.875 1.125 C5.96151611 2.54070123 5.98204904 3.960595 5.97265625 5.37890625 C5.96943359 6.23291016 5.96621094 7.08691406 5.96289062 7.96679688 C5.95451172 8.86462891 5.94613281 9.76246094 5.9375 10.6875 C5.93298828 11.58919922 5.92847656 12.49089844 5.92382812 13.41992188 C5.91200244 15.65497589 5.89406638 17.88999602 5.875 20.125 C10.495 20.125 15.115 20.125 19.875 20.125 C19.875 25.405 19.875 30.685 19.875 36.125 C15.255 36.125 10.635 36.125 5.875 36.125 C5.97197686 40.20058002 6.07472884 44.27536748 6.19238281 48.3503418 C6.2306435 49.73631907 6.26550156 51.12239465 6.296875 52.50854492 C6.34258699 54.5020164 6.40158925 56.49516914 6.4609375 58.48828125 C6.50806885 60.28712769 6.50806885 60.28712769 6.55615234 62.12231445 C6.65929494 65.30382706 6.65929494 65.30382706 8.875 68.125 C9.679375 68.33125 10.48375 68.5375 11.3125 68.75 C14.43936097 70.42782784 14.48461666 71.21209204 15.5 74.5 C15.83837891 75.70076172 15.83837891 75.70076172 16.18359375 76.92578125 C16.97242509 79.43488886 18.10461068 81.18600218 19.875 83.125 C14.19712736 86.86044252 5.42778774 85.77620872 -1.125 85.125 C-5.86125874 83.94261484 -8.49179893 81.92056032 -11.5625 78.0625 C-14.12621649 73.242713 -14.25832496 69.29199211 -14.22265625 63.95703125 C-14.2212413 63.16221848 -14.21982635 62.3674057 -14.21836853 61.54850769 C-14.21277378 59.01146675 -14.20022228 56.47451425 -14.1875 53.9375 C-14.18248432 52.21679815 -14.17792153 50.49609492 -14.17382812 48.77539062 C-14.16280607 44.5585597 -14.14554506 40.34179484 -14.125 36.125 C-17.755 36.125 -21.385 36.125 -25.125 36.125 C-25.125 30.845 -25.125 25.565 -25.125 20.125 C-21.495 20.125 -17.865 20.125 -14.125 20.125 C-14.19460937 19.08859375 -14.26421875 18.0521875 -14.3359375 16.984375 C-14.39222764 15.61464826 -14.44682648 14.24485127 -14.5 12.875 C-14.55027344 12.19308594 -14.60054687 11.51117188 -14.65234375 10.80859375 C-14.7109375 8.796875 -14.7109375 8.796875 -14.125 5.125 C-9.63875321 1.29376996 -5.80450267 -0.01692275 0 0 Z " fill="#459EB5" transform="translate(240.125,29.875)"/>
<path d="M0 0 C1.65 0 3.3 0 5 0 C5.12375 0.639375 5.2475 1.27875 5.375 1.9375 C5.684375 2.9584375 5.684375 2.9584375 6 4 C6.66 4.33 7.32 4.66 8 5 C8 4.34 8 3.68 8 3 C9.98 3 11.96 3 14 3 C14.33 3.66 14.66 4.32 15 5 C15.33 4.34 15.66 3.68 16 3 C17.65 3 19.3 3 21 3 C22.42944945 5.35438733 23.08661261 6.48032433 22.625 9.25 C22.315625 10.11625 22.315625 10.11625 22 11 C17.04775569 12.10049873 12.94946295 12.0419922 8 11 C5.89811992 10.92682927 5.89811992 10.92682927 3.5 11.5625 C1 12 1 12 -1 11 C-1.14285714 3.57142857 -1.14285714 3.57142857 0 0 Z M2 5 C1.67 6.32 1.34 7.64 1 9 C1.99 9 2.98 9 4 9 C4 7.68 4 6.36 4 5 C3.34 5 2.68 5 2 5 Z M10 8 C10 8.66 10 9.32 10 10 C10.99 9.67 11.98 9.34 13 9 C12.01 8.67 11.02 8.34 10 8 Z M17 8 C17.33 8.66 17.66 9.32 18 10 C18.66 10 19.32 10 20 10 C20 9.34 20 8.68 20 8 C19.01 8 18.02 8 17 8 Z " fill="#95A6B0" transform="translate(352,129)"/>
<path d="M0 0 C0.99 0 1.98 0 3 0 C3.33 1.32 3.66 2.64 4 4 C5.65 3.67 7.3 3.34 9 3 C9 2.01 9 1.02 9 0 C9.99 0 10.98 0 12 0 C12.33 0.99 12.66 1.98 13 3 C14.98 3 16.96 3 19 3 C19.33 5.97 19.66 8.94 20 12 C13.33333333 12 6.66666667 12 0 12 C0 8.04 0 4.08 0 0 Z M6 5 C6.33 6.65 6.66 8.3 7 10 C7.66 9.67 8.32 9.34 9 9 C9 7.68 9 6.36 9 5 C8.01 5 7.02 5 6 5 Z M15 8 C15.33 8.66 15.66 9.32 16 10 C16.33 9.34 16.66 8.68 17 8 C16.34 8 15.68 8 15 8 Z " fill="#95A6B0" transform="translate(254,129)"/>
<path d="M0 0 C0.66 0 1.32 0 2 0 C2 0.66 2 1.32 2 2 C2.66 2 3.32 2 4 2 C4 2.66 4 3.32 4 4 C3.34 4 2.68 4 2 4 C2.66 6.31 3.32 8.62 4 11 C2.68 10.67 1.36 10.34 0 10 C-0.33 8.35 -0.66 6.7 -1 5 C-2.65 4.67 -4.3 4.34 -6 4 C-5.67 5.32 -5.34 6.64 -5 8 C-3.68 7.67 -2.36 7.34 -1 7 C-1.66 8.32 -2.32 9.64 -3 11 C-4.051875 10.814375 -5.10375 10.62875 -6.1875 10.4375 C-9.84774995 9.82006813 -9.84774995 9.82006813 -12.8125 10.5625 C-13.534375 10.706875 -14.25625 10.85125 -15 11 C-17 9 -17 9 -17.1875 5.9375 C-17 3 -17 3 -16 2 C-14.33394172 1.9549714 -12.66621616 1.96125079 -11 2 C-9.68 2 -8.36 2 -7 2 C-5 2 -3 2 -1 2 C-0.67 1.34 -0.34 0.68 0 0 Z M-15 7 C-14.67 7.66 -14.34 8.32 -14 9 C-13.01 8.67 -12.02 8.34 -11 8 C-12.32 7.67 -13.64 7.34 -15 7 Z " fill="#95A6B0" transform="translate(159,130)"/>
<path d="M0 0 C0.99 0 1.98 0 3 0 C3.33 1.32 3.66 2.64 4 4 C4.33 3.67 4.66 3.34 5 3 C6.66617115 2.95936168 8.33388095 2.957279 10 3 C12.125 7.625 12.125 7.625 11 11 C5.37024508 12.0235918 0.62975492 12.0235918 -5 11 C-5 8.69 -5 6.38 -5 4 C-3.35 3.67 -1.7 3.34 0 3 C0 2.01 0 1.02 0 0 Z M-2 5 C-2.33 6.32 -2.66 7.64 -3 9 C-2.01 9 -1.02 9 0 9 C0.33 8.34 0.66 7.68 1 7 C0.67 6.34 0.34 5.68 0 5 C-0.66 5 -1.32 5 -2 5 Z M6 5 C6.33 6.65 6.66 8.3 7 10 C7.66 9.67 8.32 9.34 9 9 C8.67 7.68 8.34 6.36 8 5 C7.34 5 6.68 5 6 5 Z " fill="#95A6B0" transform="translate(185,129)"/>
<path d="M0 0 C3.625 0.375 3.625 0.375 7 1 C7 1.99 7 2.98 7 4 C5.35 3.67 3.7 3.34 2 3 C1.67 4.65 1.34 6.3 1 8 C1.99 8.33 2.98 8.66 4 9 C4.33 8.34 4.66 7.68 5 7 C5.99 7 6.98 7 8 7 C8.66 5.68 9.32 4.36 10 3 C11.66611905 2.957279 13.33382885 2.95936168 15 3 C16 4 16 4 16.1875 6.9375 C16 10 16 10 14 12 C11.5 11.625 11.5 11.625 9 11 C6.73558158 10.94140312 6.73558158 10.94140312 3.5 11.625 C1.7675 11.810625 1.7675 11.810625 0 12 C-2 10 -2 10 -2.265625 8.125 C-2.26046875 7.42375 -2.2553125 6.7225 -2.25 6 C-2.25515625 5.29875 -2.2603125 4.5975 -2.265625 3.875 C-2 2 -2 2 0 0 Z M11 5 C10.67 5.99 10.34 6.98 10 8 C10.33 8.66 10.66 9.32 11 10 C11.99 9.67 12.98 9.34 14 9 C13.67 7.68 13.34 6.36 13 5 C12.34 5 11.68 5 11 5 Z " fill="#95A6B0" transform="translate(117,129)"/>
<path d="M0 0 C0.99 0 1.98 0 3 0 C3.33 1.98 3.66 3.96 4 6 C4.66 4.02 5.32 2.04 6 0 C9 0 12 0 15 0 C15.33 0.99 15.66 1.98 16 3 C14.35 2.67 12.7 2.34 11 2 C11.66 3.32 12.32 4.64 13 6 C13.99 5.67 14.98 5.34 16 5 C16 5.99 16 6.98 16 8 C15.34 8 14.68 8 14 8 C14 9.32 14 10.64 14 12 C12.68 12 11.36 12 10 12 C9.67 10.68 9.34 9.36 9 8 C8.67 8.33 8.34 8.66 8 9 C5.0625 9.1875 5.0625 9.1875 2 9 C0 7 0 7 -0.125 3.375 C-0.08375 2.26125 -0.0425 1.1475 0 0 Z " fill="#95A6B0" transform="translate(334,132)"/>
<path d="M0 0 C0.86625 0.020625 1.7325 0.04125 2.625 0.0625 C3.615 0.0625 4.605 0.0625 5.625 0.0625 C7.29166667 0.0625 8.95833333 0.0625 10.625 0.0625 C11.73344919 3.38784757 11.46954356 5.68432575 10.625 9.0625 C9.573125 8.876875 8.52125 8.69125 7.4375 8.5 C4.01561965 8.10732521 1.90714864 8.3122946 -1.375 9.0625 C-2.035 8.7325 -2.695 8.4025 -3.375 8.0625 C-3.41741723 5.72955225 -3.41592937 3.39547433 -3.375 1.0625 C-2.375 0.0625 -2.375 0.0625 0 0 Z M-1.375 5.0625 C-0.715 5.7225 -0.055 6.3825 0.625 7.0625 C0.955 6.4025 1.285 5.7425 1.625 5.0625 C0.635 5.0625 -0.355 5.0625 -1.375 5.0625 Z M6.625 5.0625 C6.955 5.7225 7.285 6.3825 7.625 7.0625 C8.285 6.7325 8.945 6.4025 9.625 6.0625 C8.635 5.7325 7.645 5.4025 6.625 5.0625 Z " fill="#95A6B0" transform="translate(286.375,131.9375)"/>
<path d="M0 0 C3 0 6 0 9 0 C10.03125 -0.020625 11.0625 -0.04125 12.125 -0.0625 C15 0 15 0 16 1 C16.1875 3.9375 16.1875 3.9375 16 7 C15.34 7.66 14.68 8.32 14 9 C11.5 8.625 11.5 8.625 9 8 C6.57202689 8 4.37092995 8.50085685 2 9 C2 9.66 2 10.32 2 11 C1.34 11 0.68 11 0 11 C0 7.37 0 3.74 0 0 Z M2 2 C2.33 3.65 2.66 5.3 3 7 C3.66 6.67 4.32 6.34 5 6 C5 4.68 5 3.36 5 2 C4.01 2 3.02 2 2 2 Z M11 2 C10.67 3.32 10.34 4.64 10 6 C11.32 6 12.64 6 14 6 C13.67 4.68 13.34 3.36 13 2 C12.34 2 11.68 2 11 2 Z " fill="#95A6B0" transform="translate(210,132)"/>
<path d="M0 0 C1.65 0 3.3 0 5 0 C5.33 1.32 5.66 2.64 6 4 C6.391875 3.34 6.78375 2.68 7.1875 2 C9 0 9 0 11.625 -0.3125 C14 0 14 0 15 1 C15.1875 3.9375 15.1875 3.9375 15 7 C14.34 7.66 13.68 8.32 13 9 C10.66327016 8.6913753 8.33006911 8.35543427 6 8 C3.18762459 8.35974895 3.18762459 8.35974895 1 9 C-0.61949011 6.42786866 -1.04408751 5.32330841 -0.625 2.25 C-0.41875 1.5075 -0.2125 0.765 0 0 Z M10 2 C9.67 2.99 9.34 3.98 9 5 C9.33 5.66 9.66 6.32 10 7 C10.99 6.67 11.98 6.34 13 6 C12.67 4.68 12.34 3.36 12 2 C11.34 2 10.68 2 10 2 Z M1 5 C1.33 5.66 1.66 6.32 2 7 C2.66 7 3.32 7 4 7 C4 6.34 4 5.68 4 5 C3.01 5 2.02 5 1 5 Z " fill="#95A6B0" transform="translate(315,132)"/>
<path d="M0 0 C2 0.1875 2 0.1875 4 1 C6.14915785 4.22373677 6.38286803 5.26703674 6 9 C4 11 4 11 1.5 11.25 C-1 11 -1 11 -3 9 C-2.53846154 2.53846154 -2.53846154 2.53846154 0 0 Z " fill="#DBE283" transform="translate(58,57)"/>
<path d="M0 0 C0.66 0 1.32 0 2 0 C2 3.96 2 7.92 2 12 C0.02 12 -1.96 12 -4 12 C-6 10 -6 10 -6.1875 6.9375 C-6 4 -6 4 -5 3 C-3.33382885 2.95936168 -1.66611905 2.957279 0 3 C0 2.01 0 1.02 0 0 Z M-3 5 C-3.33 6.32 -3.66 7.64 -4 9 C-2.68 9 -1.36 9 0 9 C-0.33 7.68 -0.66 6.36 -1 5 C-1.66 5 -2.32 5 -3 5 Z " fill="#95A6B0" transform="translate(280,129)"/>
<path d="M0 0 C0.66 0 1.32 0 2 0 C2 0.66 2 1.32 2 2 C2.66 2 3.32 2 4 2 C4 2.66 4 3.32 4 4 C3.34 4 2.68 4 2 4 C2 5.65 2 7.3 2 9 C2.66 9 3.32 9 4 9 C4 9.66 4 10.32 4 11 C2.68 11 1.36 11 0 11 C0 8.69 0 6.38 0 4 C-0.99 4.33 -1.98 4.66 -3 5 C-3.33 6.98 -3.66 8.96 -4 11 C-4.66 11 -5.32 11 -6 11 C-6 8.03 -6 5.06 -6 2 C-4.02 2 -2.04 2 0 2 C0 1.34 0 0.68 0 0 Z " fill="#95A6B0" transform="translate(233,130)"/>
<path d="M0 0 C2.5 0.125 2.5 0.125 3.5 1.125 C3.54092937 3.45797433 3.54241723 5.79205225 3.5 8.125 C1.52 8.455 -0.46 8.785 -2.5 9.125 C-4.5 6.125 -4.5 6.125 -4.1875 3.5 C-3.22096128 0.16104806 -3.22096128 0.16104806 0 0 Z M-1.5 5.125 C-0.84 5.785 -0.18 6.445 0.5 7.125 C0.83 6.465 1.16 5.805 1.5 5.125 C0.51 5.125 -0.48 5.125 -1.5 5.125 Z " fill="#95A6B0" transform="translate(306.5,131.875)"/>
<path d="M0 0 C1.65 0 3.3 0 5 0 C6.4783226 2.95664519 6.06032783 5.74229737 6 9 C4.02 9 2.04 9 0 9 C-1.125 7.3125 -1.125 7.3125 -2 5 C-1.125 2.25 -1.125 2.25 0 0 Z M1 5 C1.33 5.66 1.66 6.32 2 7 C2.33 6.34 2.66 5.68 3 5 C2.34 5 1.68 5 1 5 Z " fill="#95A6B0" transform="translate(165,132)"/>
<path d="M0 0 C2.5625 0.1875 2.5625 0.1875 4.5625 2.1875 C4.1875 5.3125 4.1875 5.3125 3.5625 8.1875 C-1.1875 9.3125 -1.1875 9.3125 -3.4375 8.1875 C-3.47991723 5.85455225 -3.47842937 3.52047433 -3.4375 1.1875 C-2.4375 0.1875 -2.4375 0.1875 0 0 Z M-0.4375 2.1875 C-0.7675 3.5075 -1.0975 4.8275 -1.4375 6.1875 C-0.4475 6.1875 0.5425 6.1875 1.5625 6.1875 C1.5625 4.8675 1.5625 3.5475 1.5625 2.1875 C0.9025 2.1875 0.2425 2.1875 -0.4375 2.1875 Z " fill="#95A6B0" transform="translate(204.4375,131.8125)"/>
<path d="M0 0 C2.31 0 4.62 0 7 0 C7 2.97 7 5.94 7 9 C6.34 9 5.68 9 5 9 C5 6.69 5 4.38 5 2 C4.01 2.495 4.01 2.495 3 3 C2.34227572 6.02934491 2.34227572 6.02934491 2 9 C1.34 9 0.68 9 0 9 C0 6.03 0 3.06 0 0 Z " fill="#95A6B0" transform="translate(246,132)"/>
<path d="M0 0 C0.66 0 1.32 0 2 0 C2.33 1.98 2.66 3.96 3 6 C3.33 6 3.66 6 4 6 C4.33 4.02 4.66 2.04 5 0 C5.66 0 6.32 0 7 0 C7 2.97 7 5.94 7 9 C5.00045254 9.04254356 2.99958364 9.04080783 1 9 C0 8 0 8 -0.09765625 6.15234375 C-0.06510417 4.1015625 -0.03255208 2.05078125 0 0 Z " fill="#95A6B0" transform="translate(238,132)"/>
<path d="M0 0 C1.99954746 -0.04254356 4.00041636 -0.04080783 6 0 C7 1 7 1 7.09765625 2.84765625 C7.06510417 4.8984375 7.03255208 6.94921875 7 9 C6.34 9 5.68 9 5 9 C4.67 7.02 4.34 5.04 4 3 C3.67 3 3.34 3 3 3 C2.67 4.98 2.34 6.96 2 9 C1.34 9 0.68 9 0 9 C0 6.03 0 3.06 0 0 Z " fill="#95A6B0" transform="translate(172,132)"/>
<path d="M0 0 C1.99954746 -0.04254356 4.00041636 -0.04080783 6 0 C7 1 7 1 7.09765625 2.84765625 C7.06510417 4.8984375 7.03255208 6.94921875 7 9 C6.34 9 5.68 9 5 9 C5 6.69 5 4.38 5 2 C4.01 2.495 4.01 2.495 3 3 C2.34227572 6.02934491 2.34227572 6.02934491 2 9 C1.34 9 0.68 9 0 9 C0 6.03 0 3.06 0 0 Z " fill="#95A6B0" transform="translate(134,132)"/>
<path d="M0 0 C0.66 0 1.32 0 2 0 C2 3.96 2 7.92 2 12 C1.34 12 0.68 12 0 12 C0 8.04 0 4.08 0 0 Z " fill="#95A6B0" transform="translate(331,129)"/>
</svg>
